<svg width="64" height="64" viewBox="0 0 64 64" fill="none" xmlns="http://www.w3.org/2000/svg">
<path d="M0 13.5901C0 6.08451 6.08451 0 13.5901 0C17.1337 0 20.3604 1.3562 22.7797 3.57787C25.2105 1.35563 28.4469 0 32 0C35.553 0 38.7895 1.35562 41.2203 3.57787C43.6396 1.3562 46.8663 0 50.4099 0C57.9155 0 64 6.08451 64 13.5901V50.4099C64 57.9155 57.9155 64 50.4099 64C46.8663 64 43.6396 62.6438 41.2203 60.4221C38.7895 62.6444 35.553 64 32 64C28.4469 64 25.2105 62.6444 22.7797 60.4221C20.3604 62.6438 17.1337 64 13.5901 64C6.08451 64 0 57.9155 0 50.4099V13.5901Z" fill="#FCFAF9"/>
<path fill-rule="evenodd" clip-rule="evenodd" d="M29.6674 12.0515C26.8007 12.3232 24.4535 12.96 22.1789 14.0831C20.5142 14.905 19.4913 15.6354 18.1934 16.9286C15.6499 19.4629 14.4174 22.3365 14.0779 26.5241C13.8303 29.5783 14.179 33.0183 15.0386 36.001C16.4192 40.7921 19.4834 45.4709 23.1771 48.4285C25.556 50.3333 27.6159 51.3968 29.7972 51.8467C30.7821 52.0497 33.1752 52.0514 34.1849 51.8498C36.9812 51.2913 39.7133 49.6466 42.5256 46.8288C44.593 44.7573 46.0442 42.7618 47.274 40.2992C48.9896 36.8638 49.8518 33.412 49.9824 29.457C50.1321 24.9243 49.3293 21.6101 47.3876 18.7453C46.6086 17.5959 44.9336 15.961 43.692 15.1382C41.3759 13.6031 38.6003 12.6045 35.4677 12.1794C34.2781 12.0179 30.8251 11.9418 29.6674 12.0515ZM43.1953 30.5315C43.8338 30.7765 44.4904 31.406 44.791 32.0611C45.0641 32.6564 45.158 33.8585 44.9975 34.7032C44.8592 35.4314 44.0807 37.0077 43.4412 37.8546C41.4331 40.514 38.2979 41.9402 36.117 41.1861C35.5011 40.9733 34.6859 40.1423 34.4294 39.466C33.7177 37.5892 34.5369 35.1426 36.59 33.0122C37.4586 32.111 38.2102 31.5281 39.1037 31.0629C39.705 30.7498 40.5787 30.4291 41.0949 30.3322C41.5949 30.2382 42.706 30.3436 43.1953 30.5315ZM24.0195 30.7781C25.2979 31.2532 26.4564 32.0653 27.6023 33.2896C29.1425 34.9355 29.9131 36.6837 29.8196 38.3198C29.7446 39.6333 29.19 40.4875 28.0459 41.0518C27.4197 41.3607 27.3437 41.3772 26.5572 41.3746C24.7717 41.3687 22.8878 40.412 21.2812 38.6952C20.1675 37.5051 19.2133 35.8023 19.0132 34.648C18.7633 33.2055 19.2336 31.7324 20.1725 31.0178C20.7521 30.5766 21.2951 30.4425 22.352 30.4793C23.1512 30.5071 23.4192 30.5551 24.0195 30.7781Z" fill="#57ACBC"/>
</svg>
